Coordinates
version=1
nRows=49
nColumns=12
inDegrees=yes

Units are S.I. units (second, meters, Newtons, ...)
Angles are in degrees

endheader
time	SC_y	SC_z	SC_x	AC_y	AC_z	AC_x	GH_y	GH_z	GH_yy	EL_x	PS_y
       0.0              -34.95          8.582          73.88          52.12          5.561          13.59         -95.52          40.51          111.9          135.8          84.83
   0.04511              -34.95          8.584          73.88          52.12          5.561          13.59          -95.5          40.51          111.9          135.7          84.84
   0.09022              -34.96          8.587          73.87          52.12           5.56          13.59         -95.49          40.51          111.9          135.7          84.85
    0.1353              -34.96           8.59          73.86          52.12           5.56          13.59         -95.48          40.51          111.9          135.7          84.85
    0.1804              -34.96          8.593          73.86          52.13           5.56          13.59         -95.46          40.51          111.9          135.7          84.86
    0.2256              -34.96          8.596          73.85          52.13           5.56          13.59         -95.45          40.51          111.9          135.7          84.87
    0.2707              -34.96            8.6          73.85          52.13           5.56          13.59         -95.43           40.5          111.8          135.7          84.88
    0.3158              -34.97          8.604          73.84          52.13          5.559          13.59         -95.41           40.5          111.8          135.7          84.89
    0.3609              -34.97          8.608          73.83          52.14          5.559          13.59         -95.39           40.5          111.8          135.7           84.9
     0.406              -34.97          8.612          73.82          52.14          5.559          13.59         -95.37           40.5          111.8          135.7          84.91
    0.4511              -34.97          8.617          73.81          52.15          5.558          13.59         -95.35           40.5          111.8          135.7          84.92
    0.4962              -34.98          8.622           73.8          52.15          5.558          13.59         -95.33           40.5          111.7          135.6          84.93
    0.5413              -34.98          8.628          73.79          52.15          5.558          13.59          -95.3           40.5          111.7          135.6          84.94
    0.5865              -34.98          8.634          73.78          52.16          5.557          13.59         -95.27          40.49          111.7          135.6          84.95
    0.6316              -34.99           8.64          73.77          52.16          5.557          13.59         -95.24          40.49          111.6          135.6          84.97
    0.6767              -34.99          8.647          73.76          52.17          5.556          13.59         -95.21          40.49          111.6          135.6          84.99
    0.7218               -35.0          8.655          73.74          52.18          5.556          13.59         -95.17          40.49          111.6          135.5           85.0
    0.7669               -35.0          8.663          73.73          52.18          5.555          13.59         -95.13          40.49          111.5          135.5          85.02
     0.812              -35.01          8.672          73.71          52.19          5.555          13.59         -95.09          40.48          111.5          135.5          85.04
    0.8571              -35.01          8.682          73.69           52.2          5.554          13.59         -95.05          40.48          111.4          135.5          85.07
    0.9022              -35.02          8.693          73.67          52.21          5.553          13.59         -94.99          40.48          111.4          135.4          85.09
    0.9474              -35.03          8.705          73.65          52.22          5.552          13.58         -94.94          40.47          111.3          135.4          85.12
    0.9925              -35.04          8.718          73.63          52.23          5.551          13.58         -94.88          40.47          111.3          135.4          85.15
     1.038              -35.05          8.733           73.6          52.24           5.55          13.58         -94.81          40.47          111.2          135.3          85.18
     1.083              -35.06          8.749          73.57          52.25          5.549          13.58         -94.73          40.46          111.1          135.3          85.22
     1.128              -35.07          8.767          73.53          52.27          5.548          13.58         -94.65          40.46          111.0          135.2          85.26
     1.173              -35.08          8.788           73.5          52.29          5.547          13.58         -94.55          40.45          110.9          135.2          85.31
     1.218              -35.09           8.81          73.45          52.31          5.545          13.58         -94.44          40.44          110.8          135.1          85.36
     1.263              -35.11          8.836          73.41          52.33          5.543          13.58         -94.32          40.44          110.7          135.0          85.42
     1.308              -35.13          8.866          73.35          52.35          5.541          13.58         -94.19          40.43          110.6          135.0          85.49
     1.353              -35.15          8.899          73.29          52.38          5.539          13.58         -94.03          40.42          110.4          134.9          85.57
     1.398              -35.17          8.938          73.22          52.41          5.536          13.58         -93.85          40.41          110.2          134.8          85.65
     1.444               -35.2          8.982          73.13          52.45          5.533          13.58         -93.64          40.39          110.0          134.6          85.76
     1.489              -35.23          9.034          73.04          52.49           5.53          13.57          -93.4          40.38          109.8          134.5          85.87
     1.534              -35.27          9.094          72.93          52.54          5.525          13.57         -93.12          40.36          109.5          134.3          86.01
     1.579              -35.31          9.165          72.79           52.6          5.521          13.57         -92.78          40.34          109.2          134.1          86.18
     1.624              -35.36           9.25          72.64          52.67          5.515          13.57         -92.39          40.31          108.8          133.9          86.37
     1.669              -35.42          9.351          72.45          52.75          5.508          13.56         -91.91          40.28          108.3          133.6          86.61
     1.714               -35.5          9.474          72.22          52.85          5.499          13.56         -91.34          40.25          107.7          133.3          86.89
     1.759              -35.59          9.624          71.94          52.98          5.489          13.55         -90.64          40.21          107.0          132.8          87.23
     1.804               -35.7          9.809          71.59          53.13          5.476          13.55         -89.77          40.15          106.1          132.3          87.66
      1.85              -35.84          10.04          71.16          53.32           5.46          13.54         -88.69          40.08          105.0          131.7          88.19
     1.895              -36.02          10.33          70.62          53.56           5.44          13.53         -87.33           40.0          103.6          130.9          88.86
      1.94              -36.25           10.7          69.94          53.87          5.415          13.52          -85.6          39.89          101.9          129.8          89.71
     1.985              -36.53          11.17          69.05          54.26          5.382           13.5         -83.39          39.75          99.62          128.5          90.79
      2.03               -36.9          11.78          67.92          54.76           5.34          13.48         -80.55          39.58          96.74          126.8          92.19
     2.075              -37.38          12.55          66.48          55.41          5.286          13.45         -76.92          39.35          93.06          124.7          93.97
      2.12              -37.97          13.53          64.67          56.21          5.219          13.42         -72.36          39.07          88.43          121.9          96.21
     2.165               -38.7          14.71          62.45           57.2          5.137          13.38          -66.8          38.72           82.8          118.6          98.95
